<?xml version="1.0" encoding="UTF-8" standalone="no"?>
<!DOCTYPE svg PUBLIC "-//W3C//DTD SVG 1.1//EN" "http://www.w3.org/Graphics/SVG/1.1/DTD/svg11.dtd">
<svg width="100%" height="100%" viewBox="0 0 800 400" version="1.1" xmlns="http://www.w3.org/2000/svg" xmlns:xlink="http://www.w3.org/1999/xlink" xml:space="preserve" xmlns:serif="http://www.serif.com/" style="fill-rule:evenodd;clip-rule:evenodd;stroke-linejoin:round;stroke-miterlimit:1.5;">
    <rect x="40" y="0" width="320" height="400" style="fill:white;"/>
    <g transform="matrix(1,0,0,1,400,0)">
        <rect x="40" y="0" width="320" height="400" style="fill:white;"/>
    </g>
    <g transform="matrix(1,0,0,1,0.580939,5.15838)">
        <g transform="matrix(16,0,0,16,268.614,34.8416)">
        </g>
        <text x="129.888px" y="34.842px" style="font-family:'Arial-BoldMT', 'Arial', sans-serif;font-weight:700;font-size:16px;">Peer to Peer (P2P)</text>
    </g>
    <g transform="matrix(1,0,0,1,161.818,-102.594)">
        <g transform="matrix(16,0,0,16,579.838,142.594)">
        </g>
        <text x="297.299px" y="142.594px" style="font-family:'Arial-BoldMT', 'Arial', sans-serif;font-weight:700;font-size:16px;">W<tspan x="312.26px 316.705px " y="142.594px 142.594px ">it</tspan>h Selective Forwarding Unit (SFU)</text>
    </g>
    <circle cx="100" cy="100" r="20" style="fill:rgb(231,26,58);"/>
    <circle cx="300" cy="100" r="20" style="fill:rgb(2,189,0);"/>
    <circle cx="100" cy="300" r="20" style="fill:rgb(14,75,211);"/>
    <circle cx="300" cy="300" r="20" style="fill:rgb(221,191,49);"/>
    <g transform="matrix(1,0,0,1,400,0)">
        <circle cx="100" cy="100" r="20" style="fill:rgb(231,26,58);"/>
    </g>
    <g transform="matrix(1,0,0,1,400,0)">
        <circle cx="300" cy="100" r="20" style="fill:rgb(2,189,0);"/>
    </g>
    <g transform="matrix(1,0,0,1,400,0)">
        <circle cx="100" cy="300" r="20" style="fill:rgb(14,75,211);"/>
    </g>
    <g transform="matrix(1,0,0,1,400,0)">
        <circle cx="300" cy="300" r="20" style="fill:rgb(221,191,49);"/>
    </g>
    <g transform="matrix(1,0,0,1,1.90104,-8.64883)">
        <g transform="matrix(1,-0,-0,1,-1.90104,8.64883)">
            <path d="M256.581,85.351L268.581,91.351L256.581,97.351L262.581,91.351L256.581,85.351Z" style="fill:rgb(231,26,58);"/>
            <path d="M135.221,91.351L262.581,91.351" style="fill:none;stroke:rgb(231,26,58);stroke-width:4px;"/>
        </g>
    </g>
    <g transform="matrix(0.707107,0.707107,-0.707107,0.707107,511.341,-57.2895)">
        <g transform="matrix(0.707107,-0.707107,0.707107,0.707107,-321.063,402.083)">
            <path d="M570.66,134.965L574.902,147.693L562.174,143.45L570.66,143.45L570.66,134.965Z" style="fill:rgb(231,26,58);"/>
            <path d="M534.902,107.693C534.902,107.693 560.365,133.156 570.66,143.45" style="fill:none;stroke:rgb(231,26,58);stroke-width:4px;"/>
        </g>
    </g>
    <g transform="matrix(-0.707107,-0.707107,0.707107,-0.707107,590.773,320.365)">
        <g transform="matrix(-0.707107,0.707107,-0.707107,-0.707107,644.272,-191.207)">
            <path d="M531.455,128.111L527.212,115.383L539.94,119.626L531.455,119.626L531.455,128.111Z" style="fill:rgb(2,189,0);"/>
            <path d="M567.212,155.383C567.212,155.383 541.749,129.92 531.455,119.626" style="fill:none;stroke:rgb(2,189,0);stroke-width:4px;"/>
        </g>
    </g>
    <g transform="matrix(-0.707107,-0.707107,0.707107,-0.707107,573.849,337.29)">
        <g transform="matrix(-0.707107,0.707107,-0.707107,-0.707107,644.272,-167.273)">
            <path d="M514.531,145.035L510.288,132.307L523.016,136.55L514.531,136.55L514.531,145.035Z" style="fill:rgb(14,75,211);"/>
            <path d="M550.288,172.307C550.288,172.307 524.825,146.844 514.531,136.55" style="fill:none;stroke:rgb(14,75,211);stroke-width:4px;"/>
        </g>
    </g>
    <g transform="matrix(-0.707107,-0.707107,0.707107,-0.707107,582.2,328.939)">
        <g transform="matrix(-0.707107,0.707107,-0.707107,-0.707107,644.272,-179.083)">
            <path d="M522.881,136.684L518.639,123.956L531.367,128.199L522.881,128.199L522.881,136.684Z" style="fill:rgb(221,191,49);"/>
            <path d="M558.639,163.956C558.639,163.956 533.176,138.493 522.881,128.199" style="fill:none;stroke:rgb(221,191,49);stroke-width:4px;"/>
        </g>
    </g>
    <g transform="matrix(-0.707107,0.707107,-0.707107,-0.707107,857.29,108.746)">
        <g transform="matrix(-0.707107,-0.707107,0.707107,-0.707107,529.3,683.09)">
            <path d="M688.065,145.035L692.307,132.307L679.579,136.55L688.065,136.55L688.065,145.035Z" style="fill:rgb(231,26,58);"/>
            <path d="M688.065,136.55C677.77,146.844 652.307,172.307 652.307,172.307" style="fill:none;stroke:rgb(231,26,58);stroke-width:4px;"/>
        </g>
    </g>
    <g transform="matrix(0.707107,-0.707107,0.707107,0.707107,479.635,188.178)">
        <g transform="matrix(0.707107,0.707107,-0.707107,0.707107,-206.091,-472.215)">
            <path d="M648.86,151.889L644.617,164.617L657.345,160.374L648.86,160.374L648.86,151.889Z" style="fill:rgb(2,189,0);"/>
            <path d="M648.86,160.374C659.154,150.08 684.617,124.617 684.617,124.617" style="fill:none;stroke:rgb(2,189,0);stroke-width:4px;"/>
        </g>
    </g>
    <g transform="matrix(0.707107,-0.707107,0.707107,0.707107,462.71,171.254)">
        <g transform="matrix(0.707107,0.707107,-0.707107,0.707107,-206.091,-448.28)">
            <path d="M654.965,111.935L667.693,107.693L663.45,120.421L663.45,111.935L654.965,111.935Z" style="fill:rgb(14,75,211);"/>
            <path d="M627.693,147.693C627.693,147.693 653.156,122.23 663.45,111.935" style="fill:none;stroke:rgb(14,75,211);stroke-width:4px;"/>
        </g>
    </g>
    <g transform="matrix(0.707107,-0.707107,0.707107,0.707107,471.061,179.605)">
        <g transform="matrix(0.707107,0.707107,-0.707107,0.707107,-206.091,-460.09)">
            <path d="M663.316,120.286L676.044,116.044L671.801,128.772L671.801,120.286L663.316,120.286Z" style="fill:rgb(221,191,49);"/>
            <path d="M636.044,156.044C636.044,156.044 661.507,130.581 671.801,120.286" style="fill:none;stroke:rgb(221,191,49);stroke-width:4px;"/>
        </g>
    </g>
    <g transform="matrix(-0.707107,-0.707107,0.707107,-0.707107,687.298,457.29)">
        <g transform="matrix(-0.707107,0.707107,-0.707107,-0.707107,809.345,-162.64)">
            <path d="M651.009,288.065L663.737,292.307L659.494,279.579L659.494,288.065L651.009,288.065Z" style="fill:rgb(231,26,58);"/>
            <path d="M659.494,288.065C649.2,277.77 623.737,252.307 623.737,252.307" style="fill:none;stroke:rgb(231,26,58);stroke-width:4px;"/>
        </g>
    </g>
    <g transform="matrix(0.707107,0.707107,-0.707107,0.707107,607.866,79.6346)">
        <g transform="matrix(0.707107,-0.707107,0.707107,0.707107,-486.136,373.516)">
            <path d="M667.184,271.889L671.427,284.617L658.699,280.374L667.184,280.374L667.184,271.889Z" style="fill:rgb(2,189,0);"/>
            <path d="M631.427,244.617C631.427,244.617 656.89,270.08 667.184,280.374" style="fill:none;stroke:rgb(2,189,0);stroke-width:4px;"/>
        </g>
    </g>
    <g transform="matrix(0.707107,0.707107,-0.707107,0.707107,624.79,62.7105)">
        <g transform="matrix(0.707107,-0.707107,0.707107,0.707107,-486.136,397.45)">
            <path d="M684.108,254.965L688.351,267.693L675.623,263.45L684.108,263.45L684.108,254.965Z" style="fill:rgb(14,75,211);"/>
            <path d="M648.351,227.693C648.351,227.693 673.814,253.156 684.108,263.45" style="fill:none;stroke:rgb(14,75,211);stroke-width:4px;"/>
        </g>
    </g>
    <g transform="matrix(0.707107,0.707107,-0.707107,0.707107,616.439,71.0613)">
        <g transform="matrix(0.707107,-0.707107,0.707107,0.707107,-486.136,385.64)">
            <path d="M652.728,240.286L640,236.044L644.243,248.772L644.243,240.286L652.728,240.286Z" style="fill:rgb(221,191,49);"/>
            <path d="M644.243,240.286C654.537,250.581 680,276.044 680,276.044" style="fill:none;stroke:rgb(221,191,49);stroke-width:4px;"/>
        </g>
    </g>
    <g transform="matrix(0.707107,-0.707107,0.707107,0.707107,342.71,291.254)">
        <g transform="matrix(0.707107,0.707107,-0.707107,0.707107,-36.3853,-448.28)">
            <path d="M511.935,254.965L507.693,267.693L520.421,263.45L511.935,263.45L511.935,254.965Z" style="fill:rgb(231,26,58);"/>
            <path d="M511.935,263.45C522.23,253.156 547.693,227.693 547.693,227.693" style="fill:none;stroke:rgb(231,26,58);stroke-width:4px;"/>
        </g>
    </g>
    <g transform="matrix(-0.707107,0.707107,-0.707107,-0.707107,720.365,211.822)">
        <g transform="matrix(-0.707107,-0.707107,0.707107,-0.707107,359.594,659.156)">
            <path d="M528.111,271.14L515.383,275.383L519.626,262.655L519.626,271.14L528.111,271.14Z" style="fill:rgb(2,189,0);"/>
            <path d="M555.383,235.383C555.383,235.383 529.92,260.846 519.626,271.14" style="fill:none;stroke:rgb(2,189,0);stroke-width:4px;"/>
        </g>
    </g>
    <g transform="matrix(-0.707107,0.707107,-0.707107,-0.707107,737.29,228.746)">
        <g transform="matrix(-0.707107,-0.707107,0.707107,-0.707107,359.594,683.09)">
            <path d="M568.065,265.035L572.307,252.307L559.579,256.55L568.065,256.55L568.065,265.035Z" style="fill:rgb(14,75,211);"/>
            <path d="M568.065,256.55C557.77,266.844 532.307,292.307 532.307,292.307" style="fill:none;stroke:rgb(14,75,211);stroke-width:4px;"/>
        </g>
    </g>
    <g transform="matrix(-0.707107,0.707107,-0.707107,-0.707107,728.939,220.395)">
        <g transform="matrix(-0.707107,-0.707107,0.707107,-0.707107,359.594,671.28)">
            <path d="M536.684,279.714L523.956,283.956L528.199,271.228L528.199,279.714L536.684,279.714Z" style="fill:rgb(221,191,49);"/>
            <path d="M563.956,243.956C563.956,243.956 538.493,269.419 528.199,279.714" style="fill:none;stroke:rgb(221,191,49);stroke-width:4px;"/>
        </g>
    </g>
    <g transform="matrix(6.12323e-17,1,-1,6.12323e-17,208.189,-1.42109e-14)">
        <g transform="matrix(6.12323e-17,-1,1,6.12323e-17,1.46295e-15,208.189)">
            <path d="M114.189,254.68L108.189,266.68L102.189,254.68L108.189,260.68L114.189,254.68Z" style="fill:rgb(231,26,58);"/>
            <path d="M108.189,133.32L108.189,260.68" style="fill:none;stroke:rgb(231,26,58);stroke-width:4px;"/>
        </g>
    </g>
    <g transform="matrix(0.707107,0.707107,-0.707107,0.707107,122.61,-32.367)">
        <g transform="matrix(0.707107,-0.707107,0.707107,0.707107,-63.8112,109.585)">
            <path d="M275.757,253.717L280,266.445L267.272,262.202L275.757,262.202L275.757,253.717Z" style="fill:rgb(231,26,58);"/>
            <path d="M146.171,132.615C146.171,132.615 252.974,239.419 275.757,262.202" style="fill:none;stroke:rgb(231,26,58);stroke-width:4px;"/>
        </g>
    </g>
    <g transform="matrix(6.12323e-17,1,-1,6.12323e-17,408.581,-0.234986)">
        <g transform="matrix(6.12323e-17,-1,1,6.12323e-17,0.234986,408.581)">
            <path d="M314.581,254.445L308.581,266.445L302.581,254.445L308.581,260.445L314.581,254.445Z" style="fill:rgb(2,189,0);"/>
            <path d="M308.581,133.085L308.581,260.445" style="fill:none;stroke:rgb(2,189,0);stroke-width:4px;"/>
        </g>
    </g>
    <g transform="matrix(-1,1.22465e-16,-1.22465e-16,-1,400,207.788)">
        <g transform="matrix(-1,-1.22465e-16,1.22465e-16,-1,400,207.788)">
            <path d="M145.32,113.788L133.32,107.788L145.32,101.788L139.32,107.788L145.32,113.788Z" style="fill:rgb(2,189,0);"/>
            <path d="M266.68,107.788L139.32,107.788" style="fill:none;stroke:rgb(2,189,0);stroke-width:4px;"/>
        </g>
    </g>
    <g transform="matrix(-0.707107,0.707107,-0.707107,-0.707107,438.812,116.439)">
        <g transform="matrix(-0.707107,-0.707107,0.707107,-0.707107,227.952,392.622)">
            <path d="M152.728,269.587L140,273.829L144.243,261.101L144.243,269.587L152.728,269.587Z" style="fill:rgb(2,189,0);"/>
            <path d="M273.829,140C273.829,140 167.026,246.804 144.243,269.587" style="fill:none;stroke:rgb(2,189,0);stroke-width:4px;"/>
        </g>
    </g>
    <g transform="matrix(-1,-1.22465e-16,1.22465e-16,-1,401.901,407.61)">
        <g transform="matrix(-1,1.22465e-16,-1.22465e-16,-1,401.901,407.61)">
            <path d="M147.221,313.61L135.221,307.61L147.221,301.61L141.221,307.61L147.221,313.61Z" style="fill:rgb(221,191,49);"/>
            <path d="M268.581,307.61L141.221,307.61" style="fill:none;stroke:rgb(221,191,49);stroke-width:4px;"/>
        </g>
    </g>
    <g transform="matrix(6.12323e-17,-1,1,6.12323e-17,194.458,398.099)">
        <g transform="matrix(6.12323e-17,1,-1,6.12323e-17,398.099,-194.458)">
            <path d="M288.458,143.419L294.458,131.419L300.458,143.419L294.458,137.419L288.458,143.419Z" style="fill:rgb(221,191,49);"/>
            <path d="M294.458,264.779L294.458,137.419" style="fill:none;stroke:rgb(221,191,49);stroke-width:4px;"/>
        </g>
    </g>
    <g transform="matrix(-0.707107,-0.707107,0.707107,-0.707107,290.241,438.812)">
        <g transform="matrix(-0.707107,0.707107,-0.707107,-0.707107,515.518,105.056)">
            <path d="M137.093,152.728L132.85,140L145.578,144.243L137.093,144.243L137.093,152.728Z" style="fill:rgb(221,191,49);"/>
            <path d="M266.68,273.829C266.68,273.829 159.876,167.026 137.093,144.243" style="fill:none;stroke:rgb(221,191,49);stroke-width:4px;"/>
        </g>
    </g>
    <g transform="matrix(6.12323e-17,-1,1,6.12323e-17,-8.30043,398.099)">
        <g transform="matrix(6.12323e-17,1,-1,6.12323e-17,398.099,8.30043)">
            <path d="M85.7,143.419L91.7,131.419L97.7,143.419L91.7,137.419L85.7,143.419Z" style="fill:rgb(14,75,211);"/>
            <path d="M91.7,264.779L91.7,137.419" style="fill:none;stroke:rgb(14,75,211);stroke-width:4px;"/>
        </g>
    </g>
    <g transform="matrix(1,0,0,1,1.90104,192.208)">
        <g transform="matrix(1,-0,-0,1,-1.90104,-192.208)">
            <path d="M256.581,286.208L268.581,292.208L256.581,298.208L262.581,292.208L256.581,286.208Z" style="fill:rgb(14,75,211);"/>
            <path d="M135.221,292.208L262.581,292.208" style="fill:none;stroke:rgb(14,75,211);stroke-width:4px;"/>
        </g>
    </g>
    <g transform="matrix(0.707107,-0.707107,0.707107,0.707107,-32.132,283.561)">
        <g transform="matrix(0.707107,0.707107,-0.707107,0.707107,223.229,-177.787)">
            <path d="M253.952,130.413L266.68,126.171L262.437,138.899L262.437,130.413L253.952,130.413Z" style="fill:rgb(14,75,211);"/>
            <path d="M132.85,260C132.85,260 239.654,153.196 262.437,130.413" style="fill:none;stroke:rgb(14,75,211);stroke-width:4px;"/>
        </g>
    </g>
    <circle cx="600" cy="200" r="40" style="fill:white;stroke:black;stroke-width:4px;"/>
    <g transform="matrix(1,0,0,1,-143.394,35.0616)">
        <g transform="matrix(16,0,0,16,486.703,341.571)">
        </g>
        <text x="199.437px" y="341.571px" style="font-family:'ArialMT', 'Arial', sans-serif;font-size:16px;">Each edge node requires 2(n-1) streams</text>
    </g>
    <g transform="matrix(1,0,0,1,273.496,35.0616)">
        <g transform="matrix(16,0,0,16,452.922,341.571)">
        </g>
        <text x="199.437px" y="341.571px" style="font-family:'ArialMT', 'Arial', sans-serif;font-size:16px;">Each edge node requires n streams</text>
    </g>
    <g transform="matrix(1,0,0,1,-0.0917014,0.907879)">
        <g transform="matrix(20,0,0,20,621.683,206.245)">
        </g>
        <text x="581.683px" y="206.245px" style="font-family:'Arial-BoldMT', 'Arial', sans-serif;font-weight:700;font-size:20px;">SFU</text>
    </g>
</svg>
